<?xml version="1.0" standalone="no"?>
<!DOCTYPE svg PUBLIC "-//W3C//DTD SVG 20010904//EN"
 "http://www.w3.org/TR/2001/REC-SVG-20010904/DTD/svg10.dtd">
<svg version="1.0" xmlns="http://www.w3.org/2000/svg"
 width="512.000000pt" height="512.000000pt" viewBox="0 0 512.000000 512.000000"
 preserveAspectRatio="xMidYMid meet">

<g transform="translate(0.000000,512.000000) scale(0.100000,-0.100000)"
fill="#000000" stroke="none">
<path d="M2350 4798 c-512 -47 -994 -270 -1366 -630 -385 -373 -617 -839 -684
-1373 -17 -134 -15 -420 4 -560 94 -681 479 -1277 1058 -1637 123 -76 346
-181 485 -227 453 -151 973 -151 1426 0 139 46 362 151 485 227 577 359 961
951 1057 1632 19 136 22 432 5 565 -124 996 -869 1793 -1846 1974 -210 39
-418 49 -624 29z m200 -362 c88 -16 169 -43 297 -97 56 -24 112 -40 139 -41
41 -2 50 1 75 30 16 18 29 43 29 57 0 18 5 25 20 25 20 0 20 -7 20 -445 0
-438 0 -445 -20 -445 -18 0 -20 7 -20 73 0 168 -51 376 -121 494 -84 142 -227
236 -404 268 -308 56 -606 -56 -791 -297 -204 -265 -284 -681 -218 -1133 69
-475 323 -822 684 -933 150 -46 366 -53 505 -16 219 57 389 213 474 434 33 85
61 223 61 301 0 42 3 49 20 49 18 0 20 -7 20 -54 0 -66 -24 -209 -51 -298 -29
-99 -102 -238 -169 -323 -216 -270 -598 -380 -1025 -294 -337 68 -632 284
-800 584 -51 90 -110 254 -135 370 -27 130 -37 365 -21 505 68 599 411 1031
921 1160 47 12 112 25 145 30 97 12 284 10 365 -4z m1078 -1407 c84 -247 90
-270 71 -267 -16 2 -29 23 -54 84 -76 189 -161 300 -267 349 -121 55 -159 60
-478 59 -318 0 -404 -10 -476 -55 -65 -40 -64 -27 -64 -559 0 -264 -3 -480 -7
-480 -22 0 -112 33 -166 61 -63 31 -121 74 -176 129 l-30 30 -3 388 c-3 348
-5 390 -21 419 -22 42 -76 69 -154 78 -44 5 -63 11 -63 21 0 12 134 14 898 14
l898 0 92 -271z m-418 -1324 c0 -193 -1 -205 -19 -205 -15 0 -19 11 -25 61 -3
34 -6 94 -6 133 -1 39 -5 90 -9 114 -8 38 -6 46 17 72 15 17 30 30 34 30 5 0
8 -92 8 -205z m650 48 c0 -3 -54 -226 -121 -495 l-121 -488 -939 0 c-909 0
-939 1 -939 19 0 15 10 19 65 23 71 6 117 28 149 71 20 27 21 40 24 383 1 195
4 354 5 354 1 0 26 -7 56 -14 29 -8 113 -20 187 -27 l134 -12 0 -309 c0 -343
2 -355 63 -394 61 -40 128 -49 357 -49 225 0 262 6 400 56 268 99 482 379 621
817 17 54 27 72 41 72 10 0 18 -3 18 -7z"/>
</g>
</svg>
